<?xml version="1.0" standalone="no"?><!DOCTYPE svg PUBLIC "-//W3C//DTD SVG 1.1//EN" "http://www.w3.org/Graphics/SVG/1.1/DTD/svg11.dtd"><svg t="1717569228863" class="icon" viewBox="0 0 1024 1024" version="1.1" xmlns="http://www.w3.org/2000/svg" p-id="6733" id="mx_n_1717569228864" xmlns:xlink="http://www.w3.org/1999/xlink" width="64" height="64"><path d="M599.68 258.986667a21.333333 21.333333 0 0 0-10.88-2.986667h-153.6a21.333333 21.333333 0 0 0-10.88 2.986667A170.666667 170.666667 0 0 0 341.333333 405.333333a169.386667 169.386667 0 0 0 34.773334 102.826667 145.066667 145.066667 0 0 0 16 18.346667 17.28 17.28 0 0 0 4.053333 3.84c3.413333 3.2 7.04 6.4 10.666667 9.173333a113.066667 113.066667 0 0 0 11.52 8.32c2.56 1.706667 5.12 3.413333 7.893333 4.906667l8.32 4.48h1.706667a68.693333 68.693333 0 0 0 10.666666 4.906666 36.693333 36.693333 0 0 0 6.186667 2.346667 40.96 40.96 0 0 0 6.613333 2.346667 48.213333 48.213333 0 0 0 7.893334 2.346666c4.48 1.28 9.173333 2.346667 13.653333 3.2a96.426667 96.426667 0 0 0 13.44 1.706667 140.586667 140.586667 0 0 0 34.56 0 96.426667 96.426667 0 0 0 13.44-1.706667c4.48 0 9.173333-1.92 13.653333-3.2a48.213333 48.213333 0 0 0 7.893334-2.346666 40.96 40.96 0 0 0 6.613333-2.346667 36.693333 36.693333 0 0 0 6.186667-2.346667 68.693333 68.693333 0 0 0 10.666666-4.906666h1.706667l8.32-4.48c2.773333-1.493333 5.333333-3.2 7.893333-4.906667a113.066667 113.066667 0 0 0 11.52-8.32c3.626667-2.773333 7.253333-5.973333 10.666667-9.173333a17.28 17.28 0 0 0 4.053333-3.84 145.066667 145.066667 0 0 0 16-18.346667A169.386667 169.386667 0 0 0 682.666667 405.333333a170.666667 170.666667 0 0 0-82.986667-146.346666zM512 533.333333a126.506667 126.506667 0 0 1-87.466667-34.773333 9.813333 9.813333 0 0 0-1.493333-1.493333 128 128 0 0 1 18.346667-198.4h141.226666a128 128 0 0 1 18.773334 197.973333 9.813333 9.813333 0 0 0-1.493334 1.493333A126.506667 126.506667 0 0 1 512 533.333333z" fill="#CCCCCC" p-id="6734"></path><path d="M640 405.333333a128 128 0 0 1-38.613333 91.306667 9.813333 9.813333 0 0 0-1.493334 1.493333 128 128 0 0 1-174.933333 0 9.813333 9.813333 0 0 0-1.493333-1.493333 128 128 0 0 1 17.92-197.973333h141.226666A126.506667 126.506667 0 0 1 640 405.333333z" fill="#E5E5E5" p-id="6735"></path><path d="M699.093333 550.826667a257.92 257.92 0 0 0-51.2-42.666667 270.08 270.08 0 0 0-24.32-13.44 21.333333 21.333333 0 0 0-24.106666 3.84 128 128 0 0 1-174.933334 0 21.333333 21.333333 0 0 0-24.106666-3.84 270.08 270.08 0 0 0-24.32 13.44 257.92 257.92 0 0 0-51.2 42.666667 256 256 0 1 0 374.186666 0zM512 938.666667a213.333333 213.333333 0 0 1-155.946667-358.826667 220.16 220.16 0 0 1 50.773334-40.32 113.066667 113.066667 0 0 0 11.52 8.32c2.56 1.706667 5.12 3.413333 7.893333 4.906667l8.32 4.48h1.706667a68.693333 68.693333 0 0 0 10.666666 4.906666 36.693333 36.693333 0 0 0 6.186667 2.346667 40.96 40.96 0 0 0 6.613333 2.346667 48.213333 48.213333 0 0 0 7.893334 2.346666c4.48 1.28 9.173333 2.346667 13.653333 3.2a96.426667 96.426667 0 0 0 13.44 1.706667 140.586667 140.586667 0 0 0 34.56 0 96.426667 96.426667 0 0 0 13.44-1.706667c4.48 0 9.173333-1.92 13.653333-3.2a48.213333 48.213333 0 0 0 7.893334-2.346666 40.96 40.96 0 0 0 6.613333-2.346667 36.693333 36.693333 0 0 0 6.186667-2.346667 68.693333 68.693333 0 0 0 10.666666-4.906666h1.706667l8.32-4.48c2.773333-1.493333 5.333333-3.2 7.893333-4.906667a113.066667 113.066667 0 0 0 11.52-8.32 220.16 220.16 0 0 1 50.773334 40.32A213.333333 213.333333 0 0 1 512 938.666667z" fill="#CCCCCC" p-id="6736"></path><path d="M725.333333 725.333333a213.333333 213.333333 0 1 1-369.28-145.493333 220.16 220.16 0 0 1 50.773334-40.32 113.066667 113.066667 0 0 0 11.52 8.32c2.56 1.706667 5.12 3.413333 7.893333 4.906667l8.32 4.48h1.706667a68.693333 68.693333 0 0 0 10.666666 4.906666 36.693333 36.693333 0 0 0 6.186667 2.346667 40.96 40.96 0 0 0 6.613333 2.346667 48.213333 48.213333 0 0 0 7.893334 2.346666c4.48 1.28 9.173333 2.346667 13.653333 3.2a96.426667 96.426667 0 0 0 13.44 1.706667 140.586667 140.586667 0 0 0 34.56 0 96.426667 96.426667 0 0 0 13.44-1.706667c4.48 0 9.173333-1.92 13.653333-3.2a48.213333 48.213333 0 0 0 7.893334-2.346666 40.96 40.96 0 0 0 6.613333-2.346667 36.693333 36.693333 0 0 0 6.186667-2.346667 68.693333 68.693333 0 0 0 10.666666-4.906666h1.706667l8.32-4.48c2.773333-1.493333 5.333333-3.2 7.893333-4.906667a113.066667 113.066667 0 0 0 11.52-8.32 220.16 220.16 0 0 1 50.773334 40.32A213.333333 213.333333 0 0 1 725.333333 725.333333z" fill="#E5E5E5" p-id="6737"></path><path d="M512 640a256 256 0 0 1-187.093333-81.493333 21.333333 21.333333 0 1 1 31.146666-29.013334 213.333333 213.333333 0 0 0 311.893334 0 21.333333 21.333333 0 1 1 31.146666 29.013334A256 256 0 0 1 512 640z" fill="#BF1D23" p-id="6738"></path><path d="M597.333333 85.333333h-170.666666a21.333333 21.333333 0 0 0-21.333334 21.333334v170.666666a21.333333 21.333333 0 0 0 21.333334 21.333334h170.666666a21.333333 21.333333 0 0 0 21.333334-21.333334V106.666667a21.333333 21.333333 0 0 0-21.333334-21.333334z m-149.333333 42.666667h128v128h-128z" fill="#333333" p-id="6739"></path><path d="M448 128h128v128h-128z" fill="#4C4C4C" p-id="6740"></path><path d="M682.666667 298.666667h-85.333334a21.333333 21.333333 0 0 1 0-42.666667h85.333334a21.333333 21.333333 0 0 1 0 42.666667zM426.666667 298.666667h-85.333334a21.333333 21.333333 0 0 1 0-42.666667h85.333334a21.333333 21.333333 0 0 1 0 42.666667z" fill="#333333" p-id="6741"></path><path d="M554.666667 490.666667a21.333333 21.333333 0 0 1-15.146667-6.186667l-42.666667-42.666667a21.333333 21.333333 0 0 1 30.293334-30.293333l42.666666 42.666667a21.333333 21.333333 0 0 1 0 30.293333A21.333333 21.333333 0 0 1 554.666667 490.666667z" fill="#FF931E" p-id="6742"></path><path d="M448 384m-21.333333 0a21.333333 21.333333 0 1 0 42.666666 0 21.333333 21.333333 0 1 0-42.666666 0Z" fill="#4C4C4C" p-id="6743"></path><path d="M576 384m-21.333333 0a21.333333 21.333333 0 1 0 42.666666 0 21.333333 21.333333 0 1 0-42.666666 0Z" fill="#4C4C4C" p-id="6744"></path><path d="M576 768a21.333333 21.333333 0 0 1-21.333333-21.333333v-149.333334a21.333333 21.333333 0 0 1 42.666666 0v149.333334a21.333333 21.333333 0 0 1-21.333333 21.333333z" fill="#BF1D23" p-id="6745"></path><path d="M704 597.333333a21.333333 21.333333 0 0 1-15.146667-6.186666 21.333333 21.333333 0 0 1 0-30.293334l85.333334-85.333333a21.333333 21.333333 0 0 1 30.293333 30.293333l-85.333333 85.333334A21.333333 21.333333 0 0 1 704 597.333333z" fill="#E47017" p-id="6746"></path><path d="M832 512h-42.666667a21.333333 21.333333 0 0 1-21.333333-21.333333v-42.666667a21.333333 21.333333 0 0 1 42.666667 0v21.333333h21.333333a21.333333 21.333333 0 0 1 0 42.666667zM320 597.333333a21.333333 21.333333 0 0 1-15.146667-6.186666l-85.333333-85.333334a21.333333 21.333333 0 0 1 30.293333-30.293333l85.333334 85.333333a21.333333 21.333333 0 0 1 0 30.293334A21.333333 21.333333 0 0 1 320 597.333333z" fill="#E47017" p-id="6747"></path><path d="M234.666667 512H192a21.333333 21.333333 0 0 1 0-42.666667h21.333333v-21.333333a21.333333 21.333333 0 0 1 42.666667 0v42.666667a21.333333 21.333333 0 0 1-21.333333 21.333333z" fill="#E47017" p-id="6748"></path></svg>